<svg width="24" height="24" viewBox="0 0 24 24" fill="none" xmlns="http://www.w3.org/2000/svg">
<mask id="mask0_2890_3071" style="mask-type:alpha" maskUnits="userSpaceOnUse" x="0" y="0" width="24" height="24">
<rect width="24" height="24" fill="#D9D9D9"/>
</mask>
<g mask="url(#mask0_2890_3071)">
<path d="M8.74995 19.5H19.6923C20.1894 19.5 20.6149 19.3229 20.9689 18.9689C21.3229 18.6149 21.5 18.1894 21.5 17.6923V15.4903H8.74995V19.5ZM2.5 8.50963H7.25V4.5H4.3077C3.81058 4.5 3.38503 4.67701 3.03102 5.03103C2.67701 5.38503 2.5 5.81058 2.5 6.3077V8.50963ZM2.5 14H7.25V10.0096H2.5V14ZM4.3077 19.5H7.25V15.4903H2.5V17.6923C2.5 18.1894 2.67701 18.6149 3.03102 18.9689C3.38503 19.3229 3.81058 19.5 4.3077 19.5ZM8.74995 14H21.5V10.0096H8.74995V14ZM8.74995 8.50963H21.5V6.3077C21.5 5.81058 21.3229 5.38503 20.9689 5.03103C20.6149 4.67701 20.1894 4.5 19.6923 4.5H8.74995V8.50963Z" fill="#DFFF39"/>
</g>
</svg>
