<svg width="16" height="20" viewBox="0 0 16 20" fill="none" xmlns="http://www.w3.org/2000/svg">
<path fill-rule="evenodd" clip-rule="evenodd" d="M2.33843 13.4211C3.59613 15.2993 5.4833 17.3288 7.99995 19.5096C10.5166 17.3288 12.4038 15.2993 13.6615 13.4211C14.9192 11.5429 15.548 9.81857 15.548 8.24805C15.548 5.94038 14.8015 4.07213 13.3086 2.64328C11.8156 1.21443 10.0461 0.5 7.99995 0.5C5.9538 0.5 4.18426 1.21443 2.69133 2.64328C1.19838 4.07213 0.451904 5.94038 0.451904 8.24805C0.451904 9.81857 1.08075 11.5429 2.33843 13.4211ZM10.1205 10.1179C9.53434 10.706 8.82836 11 8.00258 11C7.17679 11 6.46988 10.7069 5.88183 10.1208C5.29378 9.53458 4.99976 8.82861 4.99976 8.00282C4.99976 7.17704 5.29284 6.47012 5.87901 5.88207C6.46517 5.29402 7.17115 5 7.99693 5C8.82272 5 9.52964 5.29308 10.1177 5.87925C10.7057 6.46542 10.9998 7.17139 10.9998 7.99718C10.9998 8.82296 10.7067 9.52988 10.1205 10.1179Z" fill="#DFFF39"/>
</svg>
