<svg width="24" height="24" viewBox="0 0 24 24" fill="none" xmlns="http://www.w3.org/2000/svg">
<mask id="mask0_2890_4629" style="mask-type:alpha" maskUnits="userSpaceOnUse" x="0" y="0" width="24" height="24">
<rect width="24" height="24" fill="#D9D9D9"/>
</mask>
<g mask="url(#mask0_2890_4629)">
<path d="M9.07181 11.5891C8.45985 11.5891 7.95131 11.3618 7.5462 10.9071C7.14106 10.4524 6.98123 9.91909 7.0667 9.30714L7.48723 6.07892C7.63937 4.97467 8.14449 4.06143 9.00261 3.3392C9.86072 2.61697 10.8599 2.25586 12 2.25586C13.1402 2.25586 14.1393 2.61697 14.9974 3.3392C15.8556 4.06143 16.3607 4.97467 16.5128 6.07892L16.9334 9.30714C17.0188 9.91909 16.859 10.4524 16.4539 10.9071C16.0487 11.3618 15.5402 11.5891 14.9282 11.5891H9.07181ZM2 21.743V18.779C2 18.126 2.17736 17.5213 2.53207 16.9649C2.88676 16.4085 3.36069 15.9807 3.95384 15.6815C5.27181 15.0354 6.6013 14.5508 7.94233 14.2277C9.28336 13.9046 10.6359 13.7431 12 13.7431C13.3641 13.7431 14.7167 13.9046 16.0577 14.2277C17.3987 14.5508 18.7282 15.0354 20.0462 15.6815C20.6394 15.9807 21.1133 16.4085 21.468 16.9649C21.8227 17.5213 22 18.126 22 18.779V21.743H2Z" fill="#757575"/>
</g>
</svg>
