<svg width="24" height="24" viewBox="0 0 24 24" fill="none" xmlns="http://www.w3.org/2000/svg">
<mask id="mask0_1441_6141" style="mask-type:alpha" maskUnits="userSpaceOnUse" x="0" y="0" width="24" height="24">
<rect width="24" height="24" fill="#D9D9D9"/>
</mask>
<g mask="url(#mask0_1441_6141)">
<path d="M9.13842 21.8655L7.35383 18.8578L3.96537 18.1155L4.29615 14.627L2 12.0001L4.29615 9.37322L3.96537 5.88477L7.35383 5.14247L9.13842 2.13477L12.3269 3.48862L15.5153 2.13477L17.2999 5.14247L20.6884 5.88477L20.3576 9.37322L22.6538 12.0001L20.3576 14.627L20.6884 18.1155L17.2999 18.8578L15.5153 21.8654L12.3269 20.5116L9.13842 21.8655ZM12.3269 16.7309C12.5525 16.7309 12.7435 16.6527 12.9 16.4963C13.0563 16.3398 13.1346 16.1488 13.1346 15.9232C13.1346 15.6976 13.0563 15.5065 12.9 15.3501C12.7435 15.1937 12.5525 15.1155 12.3269 15.1155C12.1012 15.1155 11.9102 15.1937 11.7538 15.3501C11.5974 15.5065 11.5192 15.6976 11.5192 15.9232C11.5192 16.1488 11.5974 16.3398 11.7538 16.4963C11.9102 16.6527 12.1012 16.7309 12.3269 16.7309ZM11.5769 13.077H13.0768V7.07704H11.5769V13.077Z" fill="#A3A3A3"/>
</g>
</svg>
