<svg width="16" height="21" viewBox="0 0 16 21" fill="none" xmlns="http://www.w3.org/2000/svg">
<mask id="mask0_1441_3170" style="mask-type:alpha" maskUnits="userSpaceOnUse" x="-4" y="-2" width="24" height="24">
<rect x="-4" y="-2" width="24" height="24" fill="#D9D9D9"/>
</mask>
<g mask="url(#mask0_1441_3170)">
<path d="M8 12.0101C7.76954 12.0101 7.57316 11.9289 7.41087 11.7665C7.24858 11.6041 7.16743 11.4077 7.16743 11.1771C7.16743 10.9465 7.24858 10.75 7.41087 10.5877C7.57316 10.4253 7.76954 10.3441 8 10.3441C8.23046 10.3441 8.42684 10.4253 8.58913 10.5877C8.75142 10.75 8.83257 10.9465 8.83257 11.1771C8.83257 11.4077 8.75142 11.6041 8.58913 11.7665C8.42684 11.9289 8.23046 12.0101 8 12.0101ZM4.23528 12.0101C4.00482 12.0101 3.80844 11.9289 3.64615 11.7665C3.48386 11.6041 3.40272 11.4077 3.40272 11.1771C3.40272 10.9465 3.48386 10.75 3.64615 10.5877C3.80844 10.4253 4.00482 10.3441 4.23528 10.3441C4.46575 10.3441 4.66212 10.4253 4.82441 10.5877C4.9867 10.75 5.06785 10.9465 5.06785 11.1771C5.06785 11.4077 4.9867 11.6041 4.82441 11.7665C4.66212 11.9289 4.46575 12.0101 4.23528 12.0101ZM11.7647 12.0101C11.5343 12.0101 11.3379 11.9289 11.1756 11.7665C11.0133 11.6041 10.9321 11.4077 10.9321 11.1771C10.9321 10.9465 11.0133 10.75 11.1756 10.5877C11.3379 10.4253 11.5343 10.3441 11.7647 10.3441C11.9952 10.3441 12.1916 10.4253 12.3538 10.5877C12.5161 10.75 12.5973 10.9465 12.5973 11.1771C12.5973 11.4077 12.5161 11.6041 12.3538 11.7665C12.1916 11.9289 11.9952 12.0101 11.7647 12.0101ZM8 15.7042C7.76954 15.7042 7.57316 15.6231 7.41087 15.4607C7.24858 15.2983 7.16743 15.1018 7.16743 14.8713C7.16743 14.6407 7.24858 14.4442 7.41087 14.2818C7.57316 14.1194 7.76954 14.0382 8 14.0382C8.23046 14.0382 8.42684 14.1194 8.58913 14.2818C8.75142 14.4442 8.83257 14.6407 8.83257 14.8713C8.83257 15.1018 8.75142 15.2983 8.58913 15.4607C8.42684 15.6231 8.23046 15.7042 8 15.7042ZM4.23528 15.7042C4.00482 15.7042 3.80844 15.6231 3.64615 15.4607C3.48386 15.2983 3.40272 15.1018 3.40272 14.8713C3.40272 14.6407 3.48386 14.4442 3.64615 14.2818C3.80844 14.1194 4.00482 14.0382 4.23528 14.0382C4.46575 14.0382 4.66212 14.1194 4.82441 14.2818C4.9867 14.4442 5.06785 14.6407 5.06785 14.8713C5.06785 15.1018 4.9867 15.2983 4.82441 15.4607C4.66212 15.6231 4.46575 15.7042 4.23528 15.7042ZM11.7647 15.7042C11.5343 15.7042 11.3379 15.6231 11.1756 15.4607C11.0133 15.2983 10.9321 15.1018 10.9321 14.8713C10.9321 14.6407 11.0133 14.4442 11.1756 14.2818C11.3379 14.1194 11.5343 14.0382 11.7647 14.0382C11.9952 14.0382 12.1916 14.1194 12.3538 14.2818C12.5161 14.4442 12.5973 14.6407 12.5973 14.8713C12.5973 15.1018 12.5161 15.2983 12.3538 15.4607C12.1916 15.6231 11.9952 15.7042 11.7647 15.7042ZM1.70137 19C1.22595 19 0.823532 18.8352 0.494119 18.5056C0.164706 18.1761 0 17.7734 0 17.2978V4.69418C0 4.21852 0.164706 3.81589 0.494119 3.48632C0.823532 3.15674 1.22595 2.99195 1.70137 2.99195H3.00455V1H4.45248V2.99195H11.5837V1H12.9955V2.99195H14.2986C14.774 2.99195 15.1765 3.15674 15.5059 3.48632C15.8353 3.81589 16 4.21852 16 4.69418V17.2978C16 17.7734 15.8353 18.1761 15.5059 18.5056C15.1765 18.8352 14.774 19 14.2986 19H1.70137ZM1.70137 17.5875H14.2986C14.371 17.5875 14.4374 17.5574 14.4978 17.497C14.5581 17.4366 14.5883 17.3702 14.5883 17.2978V8.46079H1.41175V17.2978C1.41175 17.3702 1.44191 17.4366 1.50224 17.497C1.56258 17.5574 1.62896 17.5875 1.70137 17.5875Z" fill="#333333"/>
</g>
</svg>
