<svg width="21" height="20" viewBox="0 0 21 20" fill="none" xmlns="http://www.w3.org/2000/svg">
<mask id="mask0_2890_3389" style="mask-type:alpha" maskUnits="userSpaceOnUse" x="0" y="0" width="21" height="20">
<rect x="0.5" width="20" height="20" fill="#D9D9D9"/>
</mask>
<g mask="url(#mask0_2890_3389)">
<path d="M10.4999 13.8782C10.6771 13.8782 10.8255 13.8182 10.9452 13.6984C11.0648 13.5786 11.1246 13.4301 11.1246 13.2529C11.1246 13.0757 11.0647 12.9273 10.9449 12.8077C10.825 12.688 10.6765 12.6282 10.4994 12.6282C10.3222 12.6282 10.1738 12.6881 10.0542 12.808C9.9345 12.9278 9.87468 13.0763 9.87468 13.2535C9.87468 13.4306 9.93459 13.579 10.0544 13.6987C10.1743 13.8183 10.3228 13.8782 10.4999 13.8782ZM10.4999 10.625C10.6771 10.625 10.8255 10.565 10.9452 10.4452C11.0648 10.3254 11.1246 10.1769 11.1246 9.99971C11.1246 9.82254 11.0647 9.67413 10.9449 9.55448C10.825 9.43483 10.6765 9.375 10.4994 9.375C10.3222 9.375 10.1738 9.43492 10.0542 9.55475C9.9345 9.6746 9.87468 9.8231 9.87468 10.0003C9.87468 10.1774 9.93459 10.3258 10.0544 10.4455C10.1743 10.5651 10.3228 10.625 10.4999 10.625ZM10.4999 7.37177C10.6771 7.37177 10.8255 7.31185 10.9452 7.192C11.0648 7.07215 11.1246 6.92365 11.1246 6.7465C11.1246 6.56935 11.0647 6.42094 10.9449 6.30127C10.825 6.18162 10.6765 6.12179 10.4994 6.12179C10.3222 6.12179 10.1738 6.18172 10.0542 6.30156C9.9345 6.4214 9.87468 6.5699 9.87468 6.74706C9.87468 6.92422 9.93459 7.07263 10.0544 7.19229C10.1743 7.31195 10.3228 7.37177 10.4999 7.37177ZM16.9099 16.25H4.08942C3.67516 16.25 3.32053 16.1025 3.02553 15.8074C2.73051 15.5124 2.58301 15.1578 2.58301 14.7435V12.0032C3.05737 11.9124 3.45374 11.6797 3.77211 11.3053C4.09049 10.9308 4.24967 10.4957 4.24967 9.99998C4.24967 9.50424 4.09049 9.06915 3.77211 8.69469C3.45374 8.32022 3.05737 8.08757 2.58301 7.99675V5.25642C2.58301 4.84215 2.73051 4.48752 3.02553 4.19252C3.32053 3.89751 3.67516 3.75 4.08942 3.75H16.9099C17.3241 3.75 17.6788 3.89751 17.9738 4.19252C18.2688 4.48752 18.4163 4.84215 18.4163 5.25642V7.99675C17.9419 8.08757 17.5456 8.32022 17.2272 8.69469C16.9088 9.06915 16.7496 9.50424 16.7496 9.99998C16.7496 10.4957 16.9088 10.9308 17.2272 11.3053C17.5456 11.6797 17.9419 11.9124 18.4163 12.0032V14.7435C18.4163 15.1578 18.2688 15.5124 17.9738 15.8074C17.6788 16.1025 17.3241 16.25 16.9099 16.25Z" fill="white"/>
</g>
</svg>
