<svg width="17" height="20" viewBox="0 0 17 20" fill="none" xmlns="http://www.w3.org/2000/svg">
<path fill-rule="evenodd" clip-rule="evenodd" d="M2.92251 13.7324C4.081 15.3685 5.83328 17.1404 8.17938 19.048C10.5408 17.1274 12.2969 15.3523 13.4477 13.7226C14.5985 12.093 15.1739 10.5725 15.1739 9.16113C15.1739 7.2114 14.5051 5.57813 13.1675 4.26133C11.8299 2.94453 10.1634 2.28613 8.16817 2.28613C6.17292 2.28613 4.51022 2.94453 3.18006 4.26133C1.8499 5.57813 1.18481 7.2114 1.18481 9.16113C1.18481 10.5725 1.76405 12.0963 2.92251 13.7324ZM9.77825 11.0535C9.33931 11.4851 8.80854 11.7009 8.18593 11.7009C7.56333 11.7009 7.03034 11.4873 6.58696 11.06C6.14359 10.6326 5.92191 10.1159 5.92191 9.50976C5.92191 8.90363 6.14138 8.38474 6.58031 7.95309C7.01924 7.52145 7.55002 7.30564 8.17263 7.30564C8.79523 7.30564 9.32822 7.5193 9.7716 7.94662C10.215 8.37394 10.4366 8.89067 10.4366 9.49682C10.4366 10.1029 10.2172 10.6218 9.77825 11.0535Z" fill="white"/>
</svg>
