<svg width="21" height="20" viewBox="0 0 21 20" fill="none" xmlns="http://www.w3.org/2000/svg">
<mask id="mask0_2890_2726" style="mask-type:alpha" maskUnits="userSpaceOnUse" x="0" y="0" width="21" height="20">
<rect x="0.5" width="20" height="20" fill="#D9D9D9"/>
</mask>
<g mask="url(#mask0_2890_2726)">
<path d="M5.50042 16.3465C5.13024 16.3465 4.81334 16.2147 4.54971 15.9511C4.2861 15.6875 4.1543 15.3706 4.1543 15.0004C4.1543 14.6302 4.2861 14.3133 4.54971 14.0497C4.81334 13.7861 5.13024 13.6543 5.50042 13.6543C5.8706 13.6543 6.18751 13.7861 6.45113 14.0497C6.71474 14.3133 6.84655 14.6302 6.84655 15.0004C6.84655 15.3706 6.71474 15.6875 6.45113 15.9511C6.18751 16.2147 5.8706 16.3465 5.50042 16.3465ZM10.5004 16.3465C10.1302 16.3465 9.81334 16.2147 9.54971 15.9511C9.2861 15.6875 9.1543 15.3706 9.1543 15.0004C9.1543 14.6302 9.2861 14.3133 9.54971 14.0497C9.81334 13.7861 10.1302 13.6543 10.5004 13.6543C10.8706 13.6543 11.1875 13.7861 11.4511 14.0497C11.7147 14.3133 11.8465 14.6302 11.8465 15.0004C11.8465 15.3706 11.7147 15.6875 11.4511 15.9511C11.1875 16.2147 10.8706 16.3465 10.5004 16.3465ZM15.5004 16.3465C15.1302 16.3465 14.8133 16.2147 14.5497 15.9511C14.2861 15.6875 14.1543 15.3706 14.1543 15.0004C14.1543 14.6302 14.2861 14.3133 14.5497 14.0497C14.8133 13.7861 15.1302 13.6543 15.5004 13.6543C15.8706 13.6543 16.1875 13.7861 16.4511 14.0497C16.7147 14.3133 16.8465 14.6302 16.8465 15.0004C16.8465 15.3706 16.7147 15.6875 16.4511 15.9511C16.1875 16.2147 15.8706 16.3465 15.5004 16.3465ZM5.50042 11.3465C5.13024 11.3465 4.81334 11.2147 4.54971 10.9511C4.2861 10.6875 4.1543 10.3706 4.1543 10.0004C4.1543 9.63024 4.2861 9.31334 4.54971 9.04971C4.81334 8.7861 5.13024 8.6543 5.50042 8.6543C5.8706 8.6543 6.18751 8.7861 6.45113 9.04971C6.71474 9.31334 6.84655 9.63024 6.84655 10.0004C6.84655 10.3706 6.71474 10.6875 6.45113 10.9511C6.18751 11.2147 5.8706 11.3465 5.50042 11.3465ZM10.5004 11.3465C10.1302 11.3465 9.81334 11.2147 9.54971 10.9511C9.2861 10.6875 9.1543 10.3706 9.1543 10.0004C9.1543 9.63024 9.2861 9.31334 9.54971 9.04971C9.81334 8.7861 10.1302 8.6543 10.5004 8.6543C10.8706 8.6543 11.1875 8.7861 11.4511 9.04971C11.7147 9.31334 11.8465 9.63024 11.8465 10.0004C11.8465 10.3706 11.7147 10.6875 11.4511 10.9511C11.1875 11.2147 10.8706 11.3465 10.5004 11.3465ZM15.5004 11.3465C15.1302 11.3465 14.8133 11.2147 14.5497 10.9511C14.2861 10.6875 14.1543 10.3706 14.1543 10.0004C14.1543 9.63024 14.2861 9.31334 14.5497 9.04971C14.8133 8.7861 15.1302 8.6543 15.5004 8.6543C15.8706 8.6543 16.1875 8.7861 16.4511 9.04971C16.7147 9.31334 16.8465 9.63024 16.8465 10.0004C16.8465 10.3706 16.7147 10.6875 16.4511 10.9511C16.1875 11.2147 15.8706 11.3465 15.5004 11.3465ZM5.50042 6.34655C5.13024 6.34655 4.81334 6.21474 4.54971 5.95113C4.2861 5.68751 4.1543 5.3706 4.1543 5.00042C4.1543 4.63024 4.2861 4.31334 4.54971 4.04971C4.81334 3.7861 5.13024 3.6543 5.50042 3.6543C5.8706 3.6543 6.18751 3.7861 6.45113 4.04971C6.71474 4.31334 6.84655 4.63024 6.84655 5.00042C6.84655 5.3706 6.71474 5.68751 6.45113 5.95113C6.18751 6.21474 5.8706 6.34655 5.50042 6.34655ZM10.5004 6.34655C10.1302 6.34655 9.81334 6.21474 9.54971 5.95113C9.2861 5.68751 9.1543 5.3706 9.1543 5.00042C9.1543 4.63024 9.2861 4.31334 9.54971 4.04971C9.81334 3.7861 10.1302 3.6543 10.5004 3.6543C10.8706 3.6543 11.1875 3.7861 11.4511 4.04971C11.7147 4.31334 11.8465 4.63024 11.8465 5.00042C11.8465 5.3706 11.7147 5.68751 11.4511 5.95113C11.1875 6.21474 10.8706 6.34655 10.5004 6.34655ZM15.5004 6.34655C15.1302 6.34655 14.8133 6.21474 14.5497 5.95113C14.2861 5.68751 14.1543 5.3706 14.1543 5.00042C14.1543 4.63024 14.2861 4.31334 14.5497 4.04971C14.8133 3.7861 15.1302 3.6543 15.5004 3.6543C15.8706 3.6543 16.1875 3.7861 16.4511 4.04971C16.7147 4.31334 16.8465 4.63024 16.8465 5.00042C16.8465 5.3706 16.7147 5.68751 16.4511 5.95113C16.1875 6.21474 15.8706 6.34655 15.5004 6.34655Z" fill="white"/>
</g>
</svg>
