<svg width="16" height="21" viewBox="0 0 16 21" fill="none" xmlns="http://www.w3.org/2000/svg">
<path d="M10.9247 14.8121L11.8121 13.9247L8.63156 10.7439V6.78946H7.36844V11.2559L10.9247 14.8121ZM8.00141 19C6.89494 19 5.85491 18.79 4.88132 18.3701C3.90772 17.9502 3.06082 17.3803 2.34064 16.6604C1.62044 15.9405 1.05028 15.094 0.63017 14.1208C0.210057 13.1477 0 12.1079 0 11.0014C0 9.89494 0.209966 8.85491 0.629896 7.88132C1.04983 6.90772 1.61972 6.06082 2.33958 5.34064C3.05946 4.62044 3.90598 4.05028 4.87915 3.63017C5.8523 3.21006 6.89212 3 7.99859 3C9.10506 3 10.1451 3.20997 11.1187 3.6299C12.0923 4.04983 12.9392 4.61972 13.6594 5.33959C14.3796 6.05946 14.9497 6.90598 15.3698 7.87915C15.7899 8.8523 16 9.89212 16 10.9986C16 12.1051 15.79 13.1451 15.3701 14.1187C14.9502 15.0923 14.3803 15.9392 13.6604 16.6594C12.9405 17.3796 12.094 17.9497 11.1208 18.3698C10.1477 18.7899 9.10788 19 8.00141 19Z" fill="#333333"/>
</svg>
