<svg width="18" height="21" viewBox="0 0 18 21" fill="none" xmlns="http://www.w3.org/2000/svg">
<path fill-rule="evenodd" clip-rule="evenodd" d="M4.60374 13.6341C5.57265 15.0397 7.0382 16.5619 9.00039 18.2008C10.9754 16.5508 12.4441 15.0258 13.4066 13.6258C14.3691 12.2258 14.8504 10.9195 14.8504 9.70703C14.8504 8.03203 14.291 6.62891 13.1723 5.49766C12.0535 4.36641 10.6598 3.80078 8.99102 3.80078C7.32227 3.80078 5.93164 4.36641 4.81914 5.49766C3.70664 6.62891 3.15039 8.03203 3.15039 9.70703C3.15039 10.9195 3.63484 12.2286 4.60374 13.6341ZM10.4167 11.4108C10.0278 11.8036 9.55752 12 9.00589 12C8.45428 12 7.98206 11.8056 7.58922 11.4167C7.19641 11.0278 7 10.5575 7 10.0059C7 9.45428 7.19444 8.98206 7.58333 8.58922C7.97222 8.19641 8.44248 8 8.99411 8C9.54572 8 10.0179 8.19444 10.4108 8.58333C10.8036 8.97222 11 9.44248 11 9.99411C11 10.5457 10.8056 11.0179 10.4167 11.4108Z" fill="#A3A3A3"/>
</svg>
