<svg width="15" height="18" viewBox="0 0 15 18" fill="none" xmlns="http://www.w3.org/2000/svg">
<path fill-rule="evenodd" clip-rule="evenodd" d="M2.47651 12.4189C3.66074 14.1369 5.45196 15.9973 7.85019 18.0004C10.2641 15.9837 12.0592 14.1198 13.2356 12.4087C14.412 10.6976 15.0002 9.10108 15.0002 7.61914C15.0002 5.57192 14.3165 3.85699 12.9491 2.47435C11.5818 1.09171 9.87832 0.400391 7.83873 0.400391C5.79915 0.400391 4.0995 1.09171 2.73978 2.47435C1.38006 3.85699 0.700195 5.57192 0.700195 7.61914C0.700195 9.10108 1.2923 10.701 2.47651 12.4189ZM9.48459 9.60611C9.0359 10.0593 8.49334 10.2859 7.85689 10.2859C7.22046 10.2859 6.67562 10.0616 6.22239 9.6129C5.76917 9.16422 5.54256 8.62165 5.54256 7.9852C5.54256 7.34877 5.7669 6.80393 6.21559 6.35069C6.66428 5.89748 7.20685 5.67087 7.8433 5.67087C8.47973 5.67087 9.02456 5.89521 9.4778 6.3439C9.93101 6.79259 10.1576 7.33516 10.1576 7.97161C10.1576 8.60804 9.93328 9.15287 9.48459 9.60611Z" fill="#A3A3A3"/>
</svg>
