<svg width="16" height="21" viewBox="0 0 16 21" fill="none" xmlns="http://www.w3.org/2000/svg">
<path fill-rule="evenodd" clip-rule="evenodd" d="M2.47651 14.4189C3.66074 16.1369 5.45196 17.9973 7.85019 20.0004C10.2641 17.9837 12.0592 16.1198 13.2356 14.4087C14.412 12.6976 15.0002 11.1011 15.0002 9.61914C15.0002 7.57192 14.3165 5.85699 12.9491 4.47435C11.5818 3.09171 9.87832 2.40039 7.83873 2.40039C5.79915 2.40039 4.0995 3.09171 2.73978 4.47435C1.38006 5.85699 0.700195 7.57192 0.700195 9.61914C0.700195 11.1011 1.2923 12.701 2.47651 14.4189ZM9.4846 11.6052C9.03592 12.0584 8.49335 12.285 7.8569 12.285C7.22047 12.285 6.67563 12.0606 6.2224 11.612C5.76918 11.1633 5.54257 10.6207 5.54257 9.98425C5.54257 9.34782 5.76692 8.80298 6.2156 8.34975C6.66429 7.89653 7.20686 7.66992 7.84331 7.66992C8.47974 7.66992 9.02457 7.89426 9.47781 8.34295C9.93103 8.79164 10.1576 9.33421 10.1576 9.97066C10.1576 10.6071 9.93329 11.1519 9.4846 11.6052Z" fill="#333333"/>
</svg>
