<svg width="137" height="86" viewBox="0 0 137 86" fill="none" xmlns="http://www.w3.org/2000/svg">
<path d="M51.1701 56.7988C49.5444 57.0738 48.1412 56.825 46.9605 56.0525C45.7798 55.2799 45.0711 54.1942 44.8345 52.7953C44.5979 51.3964 44.9101 50.138 45.771 49.0201C46.632 47.9023 47.8753 47.2059 49.5011 46.9309C51.1268 46.6559 52.5269 46.8858 53.7012 47.6205C54.8755 48.3553 55.5777 49.4032 55.8079 50.7643C56.0573 52.2388 55.7547 53.5539 54.9002 54.7096C54.0392 55.8274 52.7959 56.5239 51.1701 56.7988Z" fill="#FF2E00"/>
<path d="M49.0967 62.4033L56.2846 61.1876L60.1454 84.006L52.9575 85.2217L49.0967 62.4033Z" fill="white"/>
<path d="M95.9124 52.2822V84.897H89.7156L73.4548 65.0952V84.897H66V52.2822H72.2434L88.4576 72.0841V52.2822H95.9124Z" fill="white"/>
<path d="M122.886 32.2212C125.764 32.471 128.213 33.167 130.234 34.309C132.286 35.4537 133.808 36.9577 134.8 38.821C135.792 40.6843 136.183 42.8228 135.973 45.2365C135.766 47.6193 135.013 49.6584 133.712 51.3538C132.414 53.0183 130.655 54.2375 128.437 55.0114C126.252 55.757 123.721 56.0049 120.843 55.7551L114.298 55.1868L113.52 64.1455L106 63.4926L108.821 31L122.886 32.2212ZM120.957 49.5916C123.216 49.7878 124.975 49.4572 126.234 48.6C127.496 47.7119 128.205 46.3704 128.361 44.5755C128.519 42.7498 128.052 41.3062 126.96 40.2448C125.87 39.1524 124.195 38.5082 121.936 38.3121L115.809 37.7801L114.83 49.0596L120.957 49.5916Z" fill="white"/>
<path d="M97.8219 38.0202L96.449 18.4995L87.9658 35.2341L84.5723 35.4646L73.9785 20.4464L75.2765 39.552L68.2107 40.032L66 7.49219L72.229 7.06899L85.782 26.4627L96.4015 5.42675L102.584 5.00671L104.888 37.5402L97.8219 38.0202Z" fill="white"/>
<path d="M42.6346 32.0383C38.0181 31.4084 34.5915 29.6398 32.3549 26.7326C30.149 23.8296 29.3694 20.0083 30.0161 15.2687L32.3549 0.03479L39.8336 1.05529L37.5326 16.0122C36.7431 21.7982 38.7489 25.0188 43.5501 25.6739C45.8891 25.9931 47.7686 25.5442 49.1886 24.3272C50.6129 23.0795 51.5287 20.9629 51.936 17.9776L54.237 3.02068L61.6233 4.02858L59.2846 19.2625C58.6379 24.0021 56.8476 27.4727 53.9138 29.6744C51.0108 31.8803 47.2511 32.6683 42.6346 32.0383Z" fill="white"/>
<path d="M0 34.2627L14.3387 30.5305C17.7655 29.6385 20.9587 29.5135 23.9182 30.1554C26.8999 30.7595 29.4213 32.0611 31.4823 34.0603C33.5734 36.0516 35.0297 38.6255 35.8513 41.7818C36.6728 44.9381 36.6562 47.8953 35.8014 50.6535C34.9766 53.4038 33.4137 55.7845 31.1127 57.7957C28.8339 59.769 25.9811 61.2016 22.5542 62.0936L8.21554 65.8258L0 34.2627ZM20.6325 56.1905C23.7889 55.369 26.072 53.8439 27.4819 51.6153C28.914 49.3488 29.2389 46.7126 28.4565 43.7066C27.674 40.7005 26.109 38.5723 23.7614 37.3217C21.4361 36.0333 18.6952 35.7998 15.5389 36.6214L8.86556 38.3584L13.9592 57.9275L20.6325 56.1905Z" fill="white"/>
</svg>
