<svg width="42" height="32" viewBox="0 0 42 32" fill="none" xmlns="http://www.w3.org/2000/svg">
<rect width="42" height="32" fill="#FF2E00"/>
<path d="M10.8451 16.44C11.7877 16.44 12.5437 16.7153 13.1131 17.266C13.6824 17.8167 13.9671 18.6333 13.9671 19.716V24H12.2171V19.94C12.2171 19.2867 12.0631 18.7967 11.7551 18.47C11.4471 18.134 11.0084 17.966 10.4391 17.966C9.79508 17.966 9.28641 18.162 8.91308 18.554C8.53974 18.9367 8.35308 19.492 8.35308 20.22V24H6.60308V16.524H8.26908V17.49C8.55841 17.1447 8.92241 16.8833 9.36108 16.706C9.79974 16.5287 10.2944 16.44 10.8451 16.44ZM23.2834 20.304C23.2834 20.4253 23.2741 20.598 23.2554 20.822H17.3894C17.4921 21.3727 17.7581 21.8113 18.1874 22.138C18.6261 22.4553 19.1674 22.614 19.8114 22.614C20.6328 22.614 21.3094 22.3433 21.8414 21.802L22.7794 22.88C22.4434 23.2813 22.0188 23.5847 21.5054 23.79C20.9921 23.9953 20.4134 24.098 19.7694 24.098C18.9481 24.098 18.2248 23.9347 17.5994 23.608C16.9741 23.2813 16.4888 22.8287 16.1434 22.25C15.8074 21.662 15.6394 20.9993 15.6394 20.262C15.6394 19.534 15.8028 18.8807 16.1294 18.302C16.4654 17.714 16.9274 17.2567 17.5154 16.93C18.1034 16.6033 18.7661 16.44 19.5034 16.44C20.2314 16.44 20.8801 16.6033 21.4494 16.93C22.0281 17.2473 22.4761 17.7 22.7934 18.288C23.1201 18.8667 23.2834 19.5387 23.2834 20.304ZM19.5034 17.84C18.9434 17.84 18.4674 18.008 18.0754 18.344C17.6928 18.6707 17.4594 19.1093 17.3754 19.66H21.6174C21.5428 19.1187 21.3141 18.68 20.9314 18.344C20.5488 18.008 20.0728 17.84 19.5034 17.84ZM36.4897 16.524L33.7317 24H32.0517L30.1197 18.848L28.1597 24H26.4797L23.7357 16.524H25.3877L27.3617 22.04L29.4197 16.524H30.8897L32.9057 22.068L34.9357 16.524H36.4897Z" fill="white"/>
</svg>
