<svg width="24" height="24" viewBox="0 0 24 24" fill="none" xmlns="http://www.w3.org/2000/svg">
<mask id="mask0_1441_4915" style="mask-type:alpha" maskUnits="userSpaceOnUse" x="0" y="0" width="24" height="24">
<rect width="24" height="24" fill="#D9D9D9"/>
</mask>
<g mask="url(#mask0_1441_4915)">
<path d="M12 20.3272L10.8962 19.335C9.23847 17.8311 7.86763 16.5388 6.78365 15.458C5.69968 14.3773 4.84072 13.4154 4.20675 12.5725C3.57277 11.7295 3.12982 10.9606 2.8779 10.2657C2.62597 9.57087 2.5 8.86575 2.5 8.15037C2.5 6.73115 2.97852 5.54302 3.93558 4.58597C4.89263 3.62892 6.08076 3.15039 7.49998 3.15039C8.37306 3.15039 9.19806 3.35457 9.97498 3.76292C10.7519 4.17125 11.4269 4.75682 12 5.51964C12.5731 4.75682 13.2481 4.17125 14.025 3.76292C14.8019 3.35457 15.6269 3.15039 16.5 3.15039C17.9192 3.15039 19.1073 3.62892 20.0644 4.58597C21.0214 5.54302 21.5 6.73115 21.5 8.15037C21.5 8.86575 21.374 9.57087 21.1221 10.2657C20.8701 10.9606 20.4272 11.7295 19.7932 12.5725C19.1592 13.4154 18.3019 14.3773 17.2211 15.458C16.1403 16.5388 14.7679 17.8311 13.1038 19.335L12 20.3272ZM12 18.3004C13.6 16.8606 14.9166 15.6266 15.95 14.5984C16.9833 13.5702 17.8 12.677 18.4 11.9186C19 11.1603 19.4166 10.4869 19.65 9.89844C19.8833 9.30997 20 8.72728 20 8.15037C20 7.15037 19.6666 6.31703 19 5.65037C18.3333 4.9837 17.5 4.65037 16.5 4.65037C15.7102 4.65037 14.9804 4.87441 14.3106 5.32249C13.6407 5.77056 13.1102 6.39396 12.7192 7.19269H11.2808C10.8833 6.38756 10.3513 5.76255 9.6846 5.31767C9.01793 4.8728 8.28973 4.65037 7.49998 4.65037C6.50639 4.65037 5.67466 4.9837 5.00478 5.65037C4.33491 6.31703 3.99998 7.15037 3.99998 8.15037C3.99998 8.72728 4.11664 9.30997 4.34998 9.89844C4.58331 10.4869 4.99998 11.1603 5.59998 11.9186C6.19998 12.677 7.01664 13.5686 8.04998 14.5936C9.08331 15.6186 10.4 16.8542 12 18.3004Z" fill="white"/>
</g>
</svg>
