<svg width="42" height="32" viewBox="0 0 42 32" fill="none" xmlns="http://www.w3.org/2000/svg">
<rect width="42" height="32" fill="black"/>
<path d="M11.4863 16.44C12.2143 16.44 12.863 16.5987 13.4323 16.916C14.011 17.2333 14.4637 17.6813 14.7903 18.26C15.117 18.8387 15.2803 19.506 15.2803 20.262C15.2803 21.018 15.117 21.69 14.7903 22.278C14.4637 22.8567 14.011 23.3047 13.4323 23.622C12.863 23.9393 12.2143 24.098 11.4863 24.098C10.4783 24.098 9.68034 23.762 9.09234 23.09V26.716H7.34234V16.524H9.00834V17.504C9.29767 17.1493 9.65234 16.8833 10.0723 16.706C10.5017 16.5287 10.973 16.44 11.4863 16.44ZM11.2903 22.6C11.9343 22.6 12.4617 22.3853 12.8723 21.956C13.2923 21.5267 13.5023 20.962 13.5023 20.262C13.5023 19.562 13.2923 18.9973 12.8723 18.568C12.4617 18.1387 11.9343 17.924 11.2903 17.924C10.8703 17.924 10.4923 18.022 10.1563 18.218C9.82034 18.4047 9.55434 18.6753 9.35834 19.03C9.16234 19.3847 9.06434 19.7953 9.06434 20.262C9.06434 20.7287 9.16234 21.1393 9.35834 21.494C9.55434 21.8487 9.82034 22.124 10.1563 22.32C10.4923 22.5067 10.8703 22.6 11.2903 22.6ZM16.94 16.524H18.69V24H16.94V16.524ZM17.822 15.292C17.5047 15.292 17.2387 15.194 17.024 14.998C16.8093 14.7927 16.702 14.5407 16.702 14.242C16.702 13.9433 16.8093 13.696 17.024 13.5C17.2387 13.2947 17.5047 13.192 17.822 13.192C18.1393 13.192 18.4053 13.29 18.62 13.486C18.8347 13.6727 18.942 13.9107 18.942 14.2C18.942 14.508 18.8347 14.7693 18.62 14.984C18.4147 15.1893 18.1487 15.292 17.822 15.292ZM24.4169 24.098C23.6422 24.098 22.9469 23.9347 22.3309 23.608C21.7149 23.2813 21.2342 22.8287 20.8889 22.25C20.5435 21.662 20.3709 20.9993 20.3709 20.262C20.3709 19.5247 20.5435 18.8667 20.8889 18.288C21.2342 17.7093 21.7102 17.2567 22.3169 16.93C22.9329 16.6033 23.6329 16.44 24.4169 16.44C25.1542 16.44 25.7982 16.5893 26.3489 16.888C26.9089 17.1867 27.3289 17.616 27.6089 18.176L26.2649 18.96C26.0502 18.6147 25.7795 18.358 25.4529 18.19C25.1355 18.0127 24.7855 17.924 24.4029 17.924C23.7495 17.924 23.2082 18.1387 22.7789 18.568C22.3495 18.988 22.1349 19.5527 22.1349 20.262C22.1349 20.9713 22.3449 21.5407 22.7649 21.97C23.1942 22.39 23.7402 22.6 24.4029 22.6C24.7855 22.6 25.1355 22.516 25.4529 22.348C25.7795 22.1707 26.0502 21.9093 26.2649 21.564L27.6089 22.348C27.3195 22.908 26.8949 23.342 26.3349 23.65C25.7842 23.9487 25.1449 24.098 24.4169 24.098ZM32.1053 20.794L30.8033 22.026V24H29.0533V13.612H30.8033V19.884L34.4293 16.524H36.5293L33.4073 19.66L36.8233 24H34.6953L32.1053 20.794Z" fill="white"/>
</svg>
