<svg width="24" height="24" viewBox="0 0 24 24" fill="none" xmlns="http://www.w3.org/2000/svg">
<mask id="mask0_1441_6126" style="mask-type:alpha" maskUnits="userSpaceOnUse" x="0" y="0" width="24" height="24">
<rect width="24" height="24" fill="#D9D9D9"/>
</mask>
<g mask="url(#mask0_1441_6126)">
<mask id="mask1_1441_6126" style="mask-type:alpha" maskUnits="userSpaceOnUse" x="0" y="0" width="24" height="24">
<rect width="24" height="24" fill="#D9D9D9"/>
</mask>
<g mask="url(#mask1_1441_6126)">
<path d="M12.0003 16.6538C12.2129 16.6538 12.391 16.5819 12.5346 16.4381C12.6782 16.2943 12.75 16.1161 12.75 15.9035C12.75 15.6909 12.6781 15.5128 12.5343 15.3692C12.3904 15.2256 12.2122 15.1538 11.9997 15.1538C11.7871 15.1538 11.609 15.2257 11.4654 15.3696C11.3218 15.5134 11.25 15.6916 11.25 15.9042C11.25 16.1167 11.3219 16.2948 11.4657 16.4384C11.6095 16.582 11.7877 16.6538 12.0003 16.6538ZM12.0003 12.75C12.2129 12.75 12.391 12.6781 12.5346 12.5343C12.6782 12.3904 12.75 12.2122 12.75 11.9997C12.75 11.7871 12.6781 11.609 12.5343 11.4654C12.3904 11.3218 12.2122 11.25 11.9997 11.25C11.7871 11.25 11.609 11.3219 11.4654 11.4657C11.3218 11.6095 11.25 11.7877 11.25 12.0003C11.25 12.2129 11.3219 12.391 11.4657 12.5346C11.6095 12.6782 11.7877 12.75 12.0003 12.75ZM12.0003 8.84613C12.2129 8.84613 12.391 8.77422 12.5346 8.6304C12.6782 8.48658 12.75 8.30838 12.75 8.0958C12.75 7.88322 12.6781 7.70513 12.5343 7.56153C12.3904 7.41794 12.2122 7.34615 11.9997 7.34615C11.7871 7.34615 11.609 7.41806 11.4654 7.56188C11.3218 7.70568 11.25 7.88388 11.25 8.09648C11.25 8.30906 11.3219 8.48715 11.4657 8.63075C11.6095 8.77433 11.7877 8.84613 12.0003 8.84613ZM19.6923 19.5H4.3077C3.81058 19.5 3.38503 19.3229 3.03102 18.9689C2.67701 18.6149 2.5 18.1894 2.5 17.6923V14.4039C3.06923 14.2949 3.54488 14.0157 3.92693 13.5663C4.30898 13.117 4.5 12.5949 4.5 12C4.5 11.4051 4.30898 10.883 3.92693 10.4336C3.54488 9.98426 3.06923 9.70508 2.5 9.5961V6.3077C2.5 5.81058 2.67701 5.38503 3.03102 5.03103C3.38503 4.67701 3.81058 4.5 4.3077 4.5H19.6923C20.1894 4.5 20.6149 4.67701 20.9689 5.03103C21.3229 5.38503 21.5 5.81058 21.5 6.3077V9.5961C20.9307 9.70508 20.4551 9.98426 20.073 10.4336C19.691 10.883 19.5 11.4051 19.5 12C19.5 12.5949 19.691 13.117 20.073 13.5663C20.4551 14.0157 20.9307 14.2949 21.5 14.4039V17.6923C21.5 18.1894 21.3229 18.6149 20.9689 18.9689C20.6149 19.3229 20.1894 19.5 19.6923 19.5Z" fill="#757575"/>
</g>
</g>
</svg>
